<mxfile host="app.diagrams.net" modified="2022-07-31T20:34:03.289Z" agent="5.0 (X11)" etag="bn9hif-Uos05xWRBK0kQ" version="20.2.2" type="github">
  <diagram id="dhGUcMOUQYWBvPjEhoaF" name="PÃ¡gina-1">
    <mxGraphModel dx="1027" dy="514" grid="1" gridSize="10" guides="1" tooltips="1" connect="1" arrows="1" fold="1" page="1" pageScale="1" pageWidth="850" pageHeight="1100" math="0" shadow="0">
      <root>
        <mxCell id="0" />
        <mxCell id="1" parent="0" />
        <mxCell id="bV3P66zRaVcS_P3RTRmH-1" value="&lt;font style=&quot;font-size: 18px;&quot; face=&quot;Verdana&quot;&gt;Pilars&lt;/font&gt;" style="rounded=0;whiteSpace=wrap;html=1;" vertex="1" parent="1">
          <mxGeometry x="365" y="30" width="120" height="60" as="geometry" />
        </mxCell>
        <mxCell id="bV3P66zRaVcS_P3RTRmH-5" style="edgeStyle=orthogonalEdgeStyle;rounded=0;orthogonalLoop=1;jettySize=auto;html=1;exitX=0.5;exitY=0;exitDx=0;exitDy=0;entryX=0;entryY=0.5;entryDx=0;entryDy=0;fontFamily=Verdana;fontSize=18;" edge="1" parent="1" source="bV3P66zRaVcS_P3RTRmH-2" target="bV3P66zRaVcS_P3RTRmH-1">
          <mxGeometry relative="1" as="geometry" />
        </mxCell>
        <mxCell id="bV3P66zRaVcS_P3RTRmH-2" value="Ultrahuman" style="rounded=1;whiteSpace=wrap;html=1;fontFamily=Verdana;fontSize=18;" vertex="1" parent="1">
          <mxGeometry x="130" y="120" width="120" height="60" as="geometry" />
        </mxCell>
        <mxCell id="bV3P66zRaVcS_P3RTRmH-6" style="edgeStyle=orthogonalEdgeStyle;rounded=0;orthogonalLoop=1;jettySize=auto;html=1;exitX=0.5;exitY=0;exitDx=0;exitDy=0;entryX=0.5;entryY=1;entryDx=0;entryDy=0;fontFamily=Verdana;fontSize=18;" edge="1" parent="1" source="bV3P66zRaVcS_P3RTRmH-3" target="bV3P66zRaVcS_P3RTRmH-1">
          <mxGeometry relative="1" as="geometry" />
        </mxCell>
        <mxCell id="bV3P66zRaVcS_P3RTRmH-3" value="Stoicism" style="rounded=1;whiteSpace=wrap;html=1;fontFamily=Verdana;fontSize=18;" vertex="1" parent="1">
          <mxGeometry x="365" y="120" width="120" height="60" as="geometry" />
        </mxCell>
        <mxCell id="bV3P66zRaVcS_P3RTRmH-7" style="edgeStyle=orthogonalEdgeStyle;rounded=0;orthogonalLoop=1;jettySize=auto;html=1;exitX=0.5;exitY=0;exitDx=0;exitDy=0;entryX=1;entryY=0.5;entryDx=0;entryDy=0;fontFamily=Verdana;fontSize=18;" edge="1" parent="1" source="bV3P66zRaVcS_P3RTRmH-4" target="bV3P66zRaVcS_P3RTRmH-1">
          <mxGeometry relative="1" as="geometry" />
        </mxCell>
        <mxCell id="bV3P66zRaVcS_P3RTRmH-4" value="Masculinity" style="rounded=1;whiteSpace=wrap;html=1;fontFamily=Verdana;fontSize=18;" vertex="1" parent="1">
          <mxGeometry x="600" y="120" width="120" height="60" as="geometry" />
        </mxCell>
        <mxCell id="bV3P66zRaVcS_P3RTRmH-10" style="edgeStyle=orthogonalEdgeStyle;rounded=0;orthogonalLoop=1;jettySize=auto;html=1;fontFamily=Verdana;fontSize=18;" edge="1" parent="1" source="bV3P66zRaVcS_P3RTRmH-9">
          <mxGeometry relative="1" as="geometry">
            <mxPoint x="665" y="190" as="targetPoint" />
          </mxGeometry>
        </mxCell>
        <mxCell id="bV3P66zRaVcS_P3RTRmH-9" value="&lt;div&gt;- Taking Action&lt;/div&gt;&lt;div&gt;- Responsibility&lt;/div&gt;&lt;div&gt;- Don&#39;t Complain&lt;/div&gt;&lt;div&gt;- Mental &amp;amp; Physical Health&lt;/div&gt;&lt;div&gt;- Social Skills&lt;/div&gt;&lt;div&gt;- Provide and Care&lt;br&gt;&lt;/div&gt;" style="rounded=1;whiteSpace=wrap;html=1;fontFamily=Verdana;fontSize=18;" vertex="1" parent="1">
          <mxGeometry x="570" y="220" width="190" height="200" as="geometry" />
        </mxCell>
        <mxCell id="bV3P66zRaVcS_P3RTRmH-14" style="edgeStyle=orthogonalEdgeStyle;rounded=0;orthogonalLoop=1;jettySize=auto;html=1;entryX=0.5;entryY=1;entryDx=0;entryDy=0;fontFamily=Verdana;fontSize=18;" edge="1" parent="1" source="bV3P66zRaVcS_P3RTRmH-11" target="bV3P66zRaVcS_P3RTRmH-3">
          <mxGeometry relative="1" as="geometry" />
        </mxCell>
        <mxCell id="bV3P66zRaVcS_P3RTRmH-11" value="&lt;div&gt;-Wisdom, courage, temperance and justice&lt;br&gt;&lt;/div&gt;&lt;div&gt;-Be logical&lt;br&gt;&lt;/div&gt;&lt;div&gt;-Focus on what&#39;s in your control&lt;/div&gt;&lt;div&gt;- Attitude &amp;gt; Circumstances&lt;br&gt;&lt;/div&gt;" style="rounded=1;whiteSpace=wrap;html=1;fontFamily=Verdana;fontSize=18;" vertex="1" parent="1">
          <mxGeometry x="290" y="220" width="240" height="200" as="geometry" />
        </mxCell>
        <mxCell id="bV3P66zRaVcS_P3RTRmH-13" style="edgeStyle=orthogonalEdgeStyle;rounded=0;orthogonalLoop=1;jettySize=auto;html=1;entryX=0.5;entryY=1;entryDx=0;entryDy=0;fontFamily=Verdana;fontSize=18;" edge="1" parent="1" source="bV3P66zRaVcS_P3RTRmH-12" target="bV3P66zRaVcS_P3RTRmH-2">
          <mxGeometry relative="1" as="geometry" />
        </mxCell>
        <mxCell id="bV3P66zRaVcS_P3RTRmH-12" value="&lt;div&gt;- Create your own moral&lt;/div&gt;&lt;div&gt;- Don&#39;t be easy to pleasure&lt;/div&gt;&lt;div&gt;- Want eternal return&lt;/div&gt;&lt;div&gt;- Work on deeper and worth projects&lt;br&gt;&lt;/div&gt;" style="rounded=1;whiteSpace=wrap;html=1;fontFamily=Verdana;fontSize=18;" vertex="1" parent="1">
          <mxGeometry x="20" y="220" width="240" height="200" as="geometry" />
        </mxCell>
      </root>
    </mxGraphModel>
  </diagram>
</mxfile>
